<svg xmlns="http://www.w3.org/2000/svg" xmlns:xlink="http://www.w3.org/1999/xlink" width="226.379" height="18.567" viewBox="0 0 226.379 18.567">
  <defs>
    <clipPath id="clip-path">
      <rect id="Rectangle_21" data-name="Rectangle 21" width="226.379" height="18.567" fill="none"/>
    </clipPath>
  </defs>
  <g id="Group_427" data-name="Group 427" clip-path="url(#clip-path)">
    <path id="Path_18" data-name="Path 18" d="M7.378.164c3.7,0,6.027,1.5,7,4.2.275.7.075,1.05-.625,1.3l-1.926.675c-.75.225-1.025.1-1.3-.625C10.054,4.491,9.053,3.89,7.378,3.89c-2.176,0-3.3,1-3.3,2.976v5.1c0,1.976,1.126,2.976,3.3,2.976,1.676,0,2.676-.6,3.151-1.826.275-.725.6-.9,1.3-.625l1.926.675c.7.25.9.6.625,1.3-.975,2.7-3.3,4.2-7,4.2C2.651,18.671,0,16.095,0,11.943V6.891C0,2.74,2.651.164,7.378.164" transform="translate(0 -0.134)" fill="#242424"/>
    <path id="Path_19" data-name="Path 19" d="M105.08,7.98c0,2.5-1.05,4.277-2.9,5.127a10.1,10.1,0,0,1,.525.875l2.576,4.927c.325.6.225,1.075-.525,1.075h-2c-1.275,0-1.726-.2-2.1-.975L98.8,15.158a2.18,2.18,0,0,0-2.476-1.476H95.3v5.277c0,.775-.275,1.025-1.025,1.025H92.251c-.75,0-1.026-.25-1.026-1.025V3.253c0-.775.275-1.025,1.026-1.025h6.927c3.626,0,5.9,2.126,5.9,5.752m-6.3-2.051H95.3v4.1h3.476a1.877,1.877,0,0,0,2.076-2.051,1.877,1.877,0,0,0-2.076-2.051" transform="translate(-74.643 -1.823)" fill="#242424"/>
    <path id="Path_20" data-name="Path 20" d="M193.591,3.253V4.929c0,.75-.25,1-1.025,1h-7V9.156h5.752c.775,0,1.025.25,1.025,1v1.676c0,.775-.25,1.025-1.025,1.025h-5.752v3.4h7.253c.75,0,1.025.275,1.025,1.025v1.676c0,.775-.275,1.025-1.025,1.025h-10.3c-.75,0-1.026-.25-1.026-1.025V3.253c0-.775.275-1.025,1.026-1.025h10.054c.775,0,1.025.25,1.025,1.025" transform="translate(-148.498 -1.823)" fill="#242424"/>
    <path id="Path_21" data-name="Path 21" d="M275.7,8.23c0,3.751-2.351,5.977-6.127,5.977H265.92v4.752c0,.775-.275,1.025-1.025,1.025h-2.026c-.75,0-1.025-.25-1.025-1.025V3.253c0-.775.275-1.025,1.025-1.025h6.7c3.726,0,6.127,2.251,6.127,6m-4.227,0a2.124,2.124,0,0,0-2.326-2.3H265.92v4.552h3.226a2.1,2.1,0,0,0,2.326-2.251" transform="translate(-214.249 -1.823)" fill="#242424"/>
    <path id="Path_22" data-name="Path 22" d="M378.784.164c3.7,0,6.027,1.5,7,4.2.275.7.075,1.05-.625,1.3l-1.926.675c-.75.225-1.025.1-1.3-.625-.475-1.225-1.476-1.826-3.151-1.826-2.176,0-3.3,1-3.3,2.976v5.1c0,1.976,1.126,2.976,3.3,2.976,1.675,0,2.676-.6,3.151-1.826.275-.725.6-.9,1.3-.625l1.926.675c.7.25.9.6.625,1.3-.975,2.7-3.3,4.2-7,4.2-4.727,0-7.378-2.576-7.378-6.727V6.891c0-4.151,2.651-6.727,7.378-6.727" transform="translate(-303.896 -0.134)" fill="#242424"/>
    <path id="Path_23" data-name="Path 23" d="M476.786,3.253V18.959c0,.775-.25,1.025-1,1.025H473.76c-.775,0-1.025-.25-1.025-1.025v-6.1h-6.027v6.1c0,.775-.275,1.025-1.025,1.025h-2.026c-.75,0-1.025-.25-1.025-1.025V3.253c0-.775.275-1.025,1.025-1.025h2.026c.75,0,1.025.25,1.025,1.025V9.13h6.027V3.253c0-.775.25-1.025,1.025-1.025h2.026c.75,0,1,.25,1,1.025" transform="translate(-378.539 -1.823)" fill="#242424"/>
    <path id="Path_24" data-name="Path 24" d="M558.434,2.228h2.076c.75,0,1,.25,1,1V18.984c0,.75-.25,1-1,1h-2.076c-.75,0-1-.25-1-1V3.228c0-.75.25-1,1-1" transform="translate(-456.11 -1.823)" fill="#242424"/>
    <path id="Path_25" data-name="Path 25" d="M605.072,41.8v1.885c0,.681-.117.908-.466.908h-7.35c-.35,0-.466-.227-.466-.908V41.8c0-.681.117-.908.466-.908h7.35c.35,0,.466.227.466.908" transform="translate(-488.311 -33.458)" fill="#242424"/>
    <path id="Path_26" data-name="Path 26" d="M609.118,2.977V4.53c0,.562-.174.749-.695.749h-10.94c-.521,0-.694-.187-.694-.749V2.977c0-.562.173-.749.694-.749h10.94c.521,0,.695.187.695.749" transform="translate(-488.311 -1.823)" fill="#242424"/>
    <path id="Path_27" data-name="Path 27" d="M609.118,83.877V85.43c0,.562-.174.749-.695.749h-10.94c-.521,0-.694-.187-.694-.749V83.877c0-.562.173-.749.694-.749h10.94c.521,0,.695.187.695.749" transform="translate(-488.311 -68.018)" fill="#242424"/>
    <path id="Path_28" data-name="Path 28" d="M689.107,3.253V4.929c0,.75-.25,1-1.025,1h-7V9.506h5.752c.775,0,1.025.25,1.025,1.025v1.676c0,.75-.25,1-1.025,1H681.08v5.752c0,.775-.275,1.025-1.025,1.025h-2.026c-.75,0-1.026-.25-1.026-1.025V3.253c0-.775.275-1.025,1.026-1.025h10.053c.775,0,1.025.25,1.025,1.025" transform="translate(-553.945 -1.823)" fill="#242424"/>
    <path id="Path_29" data-name="Path 29" d="M791.386,3.1V18.857c0,.778-.251,1.029-1,1.029H788.35a1.023,1.023,0,0,1-1-.476l-4.918-7.476a18.517,18.517,0,0,1-2.108-4.691h-.175a25.842,25.842,0,0,1,.7,5.62v6c0,.778-.276,1.029-1.029,1.029h-1.857c-.753,0-1.029-.251-1.029-1.029V3.1c0-.778.276-1.029,1.029-1.029h2.082a1,1,0,0,1,.979.476l5.018,7.6a18.8,18.8,0,0,1,2.058,4.491h.2a18.955,18.955,0,0,1-.8-5.545v-6c0-.778.251-1.029,1.029-1.029h1.856c.753,0,1,.251,1,1.029" transform="translate(-635.711 -1.696)" fill="#a1f8a6"/>
    <path id="Path_30" data-name="Path 30" d="M878.2,0c4.768,0,7.426,2.585,7.426,6.749v5.068c0,4.165-2.659,6.749-7.426,6.749-4.742,0-7.4-2.585-7.4-6.749V6.749C870.8,2.585,873.461,0,878.2,0m0,3.739c-2.108,0-3.312.978-3.312,2.935v5.219c0,1.956,1.2,2.934,3.312,2.934,2.133,0,3.336-.978,3.336-2.934V6.674c0-1.957-1.2-2.935-3.336-2.935" transform="translate(-712.517)" fill="#a1f8a6"/>
    <path id="Path_31" data-name="Path 31" d="M972.7,3.1V4.783c0,.753-.251,1-1.029,1h-3.914V18.857c0,.778-.251,1.029-1.029,1.029H964.7c-.752,0-1-.251-1-1.029V5.786h-3.938c-.778,0-1.029-.251-1.029-1V3.1c0-.778.251-1.029,1.029-1.029h11.917c.778,0,1.029.251,1.029,1.029" transform="translate(-784.462 -1.696)" fill="#a1f8a6"/>
    <path id="Path_32" data-name="Path 32" d="M1046.83,2.073h2.082c.753,0,1,.251,1,1V18.882c0,.753-.251,1-1,1h-2.082c-.753,0-1-.251-1-1V3.077c0-.753.251-1,1-1" transform="translate(-855.727 -1.696)" fill="#a1f8a6"/>
    <path id="Path_33" data-name="Path 33" d="M1097.308,3.1V4.783c0,.753-.251,1-1.029,1h-7.024V9.374h5.77c.778,0,1.029.251,1.029,1.029v1.681c0,.753-.251,1-1.029,1h-5.77v5.77c0,.778-.276,1.029-1.029,1.029h-2.032c-.753,0-1.029-.251-1.029-1.029V3.1c0-.778.276-1.029,1.029-1.029h10.086c.778,0,1.029.251,1.029,1.029" transform="translate(-887.915 -1.696)" fill="#a1f8a6"/>
    <path id="Path_34" data-name="Path 34" d="M1172.169,3.1l-5.9,9.86v5.9c0,.778-.276,1.029-1.029,1.029h-2.031c-.778,0-1.029-.251-1.029-1.029V12.912l-5.9-9.81c-.326-.578-.225-1.029.527-1.029h2.333c1.2,0,1.53.024,1.982.9l3.136,5.846,3.187-5.846c.477-.878.8-.9,2.007-.9h2.182c.752,0,.854.451.527,1.029" transform="translate(-945.966 -1.696)" fill="#a1f8a6"/>
  </g>
</svg>
